<?xml version="1.0" standalone="no"?>
<!DOCTYPE svg PUBLIC "-//W3C//DTD SVG 20010904//EN"
 "http://www.w3.org/TR/2001/REC-SVG-20010904/DTD/svg10.dtd">
<svg version="1.0" xmlns="http://www.w3.org/2000/svg"
 width="394.000000pt" height="347.000000pt" viewBox="0 0 394.000000 347.000000"
 preserveAspectRatio="xMidYMid meet">
<metadata>
Created by potrace 1.13, written by Peter Selinger 2001-2015
</metadata>
<g transform="translate(0.000000,347.000000) scale(0.100000,-0.100000)"
fill="#000000" stroke="none">
<path d="M1905 3385 c-174 -246 -275 -524 -275 -756 0 -68 -3 -90 -11 -82 -14
14 -85 -6 -187 -52 -96 -45 -99 -53 -78 -218 l16 -127 -32 -30 c-18 -17 -322
-283 -675 -592 -679 -594 -674 -588 -659 -660 10 -49 254 -490 291 -525 18
-17 50 -36 72 -42 24 -7 216 -11 544 -11 397 0 509 -3 523 -13 11 -8 23 -40
31 -85 18 -91 47 -144 95 -171 33 -18 54 -21 161 -21 147 0 196 16 230 75 l21
36 17 -33 c31 -61 68 -73 228 -73 128 0 144 2 170 21 46 34 71 80 83 157 20
116 -28 107 554 107 331 0 515 4 541 11 71 19 98 50 180 201 43 79 103 188
133 242 60 106 72 169 41 213 -8 11 -160 148 -339 304 -179 156 -338 295 -355
310 -16 15 -142 125 -280 244 -137 120 -280 245 -316 279 l-65 61 19 124 c24
151 17 175 -61 215 -58 29 -168 59 -194 53 -16 -5 -18 3 -18 85 0 246 -95 494
-306 795 -16 23 -31 42 -34 43 -3 0 -32 -38 -65 -85z m73 -358 c1 23 5 48 8
57 7 19 34 9 34 -13 0 -10 7 -26 15 -37 13 -17 14 -17 15 -1 0 23 17 22 25 -2
3 -10 14 -29 25 -41 11 -13 20 -26 20 -29 0 -3 -28 -4 -61 -3 -70 4 -75 -13
-5 -20 57 -7 95 -35 96 -70 0 -29 16 -46 23 -26 2 7 7 -14 11 -47 11 -94 17
-115 32 -115 8 0 14 -5 14 -10 0 -6 -11 -8 -26 -4 -25 6 -25 6 -18 -32 4 -22
11 -64 15 -94 7 -48 7 -45 4 22 -4 64 -2 76 10 72 18 -7 23 -37 25 -171 1 -74
-3 -113 -9 -113 -7 0 -11 25 -11 60 0 33 -3 60 -7 60 -7 0 -8 -77 -3 -160 1
-22 2 -23 9 -6 15 39 20 -11 10 -101 -5 -48 -12 -119 -15 -158 -8 -99 -11
-112 -34 -118 -15 -4 -20 -13 -20 -39 0 -18 -7 -64 -15 -103 -38 -182 -54
-248 -62 -254 -11 -8 -43 -79 -43 -95 0 -7 -7 -27 -16 -45 -9 -18 -21 -69 -26
-114 -5 -45 -14 -85 -19 -90 -5 -4 -7 -4 -4 0 3 3 -1 13 -9 22 -7 9 -16 38
-20 65 -7 55 -13 67 -25 48 -5 -8 -20 49 -37 137 -18 95 -31 146 -37 138 -5
-7 -6 -2 -3 15 3 14 2 28 -2 30 -9 3 -52 219 -52 258 0 16 -4 20 -19 15 -10
-3 -23 0 -29 7 -15 18 -31 156 -37 323 -8 179 -10 206 -20 228 -11 27 2 103
22 127 18 21 18 21 24 -17 6 -35 6 -34 9 17 1 44 4 50 10 30 5 -15 8 -18 9 -8
1 9 4 24 8 34 5 14 3 16 -11 11 -17 -7 -18 -2 -11 50 4 32 13 61 20 66 7 4 16
22 20 40 12 57 16 67 31 67 8 0 14 7 14 15 0 8 14 17 35 21 45 8 50 38 5 32
-31 -5 -41 6 -15 16 9 3 15 18 15 36 0 30 15 41 22 18 3 -7 8 6 11 30 7 43 23
56 29 25 3 -13 8 -9 18 15 l15 33 6 -73 c3 -46 6 -58 7 -31z m-357 -609 c11
-11 19 -17 20 -12 1 5 7 -27 15 -71 7 -44 11 -97 7 -118 -4 -26 -1 -43 9 -55
9 -9 19 -44 23 -77 9 -78 48 -258 78 -362 21 -73 22 -83 8 -84 -14 -1 -14 -2
1 -6 17 -4 41 -58 79 -178 12 -38 24 -76 27 -82 2 -8 -4 -13 -14 -14 -17 0
-17 -1 2 -9 37 -15 92 -266 78 -358 l-7 -44 -53 4 c-38 2 -54 -1 -54 -9 0 -7
11 -13 25 -13 l25 0 2 -132 2 -133 6 135 c3 74 7 127 8 118 1 -11 10 -18 22
-18 19 0 20 -7 20 -335 l0 -335 -135 0 -135 0 0 -52 c0 -71 -17 -128 -37 -128
-13 0 -48 22 -92 57 -3 2 1 9 7 15 9 9 12 81 12 256 0 234 -1 245 -22 274
l-21 31 -18 -34 -18 -34 0 145 c-1 85 4 151 10 160 8 11 9 5 7 -27 -4 -51 8
-47 17 6 5 31 11 39 26 38 10 -1 19 -5 19 -10 0 -4 5 -5 10 -2 23 14 7 25 -40
25 l-50 0 0 65 c0 37 4 65 10 65 6 0 10 7 10 16 0 8 -4 12 -10 9 -6 -4 -10 26
-10 84 0 52 4 93 11 96 7 5 5 11 -4 18 -11 9 -16 46 -21 134 l-6 122 28 21
c21 17 22 19 4 10 -31 -15 -38 -8 -45 47 -4 27 -19 136 -33 243 -32 228 -29
263 19 284 l32 14 -36 -5 -36 -5 -6 77 c-5 68 7 145 20 131 3 -2 14 5 25 16
11 11 26 17 34 14 8 -3 14 -2 14 3 0 8 61 28 94 30 10 0 27 -9 37 -21z m784
10 c25 -7 45 -16 45 -20 0 -4 6 -5 14 -2 8 3 24 -4 35 -15 12 -12 21 -18 21
-13 0 4 6 -2 12 -13 11 -19 13 -144 2 -179 -5 -14 -13 -17 -38 -13 -31 5 -31
5 -4 -6 55 -22 58 -57 24 -294 -14 -92 -28 -194 -32 -226 -7 -64 -14 -73 -46
-57 -18 9 -17 7 4 -10 l28 -21 -6 -122 c-5 -88 -10 -125 -21 -134 -9 -7 -11
-13 -4 -18 7 -4 11 -66 11 -171 l0 -164 -42 -1 c-24 -1 -46 -1 -50 0 -12 2
-10 -17 2 -24 6 -3 10 -2 10 2 0 5 9 9 19 10 15 1 21 -7 26 -38 9 -53 21 -57
17 -6 -2 32 -1 38 7 27 6 -9 11 -75 10 -160 l0 -145 -18 34 -18 34 -21 -31
c-21 -29 -22 -40 -22 -274 0 -175 3 -247 12 -256 6 -6 10 -13 7 -15 -44 -35
-79 -57 -92 -57 -20 0 -37 57 -37 128 l0 52 -135 0 -135 0 0 335 c0 328 1 335
20 335 12 0 21 7 22 18 1 9 5 -44 8 -118 l6 -135 2 132 c2 127 3 132 24 135
12 2 23 8 25 13 2 6 -18 9 -51 7 l-53 -4 -7 44 c-14 92 41 343 78 358 19 8 19
9 2 9 -10 1 -16 6 -14 14 3 6 15 44 27 82 40 125 63 175 80 176 14 1 14 2 0 6
-14 3 -13 13 8 86 29 98 68 280 78 357 4 30 14 65 22 78 8 13 13 38 12 55 -4
43 11 157 23 181 26 49 35 52 103 34z m-1120 -570 c14 -12 25 -26 24 -32 0
-10 -72 -73 -144 -129 -23 -17 -24 -17 -34 1 -14 26 -18 77 -6 77 19 1 35 16
35 33 0 10 9 25 20 35 11 9 20 12 20 6 0 -8 4 -8 13 0 8 6 17 8 20 4 4 -3 9 2
13 11 8 20 9 20 39 -6z m1409 6 c4 -9 9 -14 13 -11 3 4 12 2 20 -4 9 -8 13 -8
13 0 0 6 9 3 20 -6 11 -10 20 -25 20 -34 0 -16 15 -34 35 -41 12 -4 8 -44 -6
-70 -10 -18 -11 -18 -34 -1 -69 54 -144 119 -144 128 -1 10 39 53 50 54 4 1
10 -6 13 -15z m-1309 -24 c-3 -5 -2 -10 3 -10 4 0 14 -39 21 -87 6 -49 17
-126 25 -173 9 -60 9 -87 2 -92 -8 -5 -8 -8 0 -8 16 0 27 -151 27 -380 0 -143
2 -172 7 -110 l6 85 2 -97 c1 -54 -2 -98 -8 -100 -5 -2 -10 -105 -12 -251 l-2
-249 -29 -24 c-17 -15 -41 -24 -61 -24 l-33 0 -6 61 c-7 76 -26 99 -88 104
-44 4 -44 4 -7 -4 60 -13 78 -35 78 -99 l0 -55 -157 7 c-87 4 -173 7 -190 8
-20 1 -33 6 -33 15 0 7 -5 13 -11 13 -5 0 -8 -4 -5 -8 9 -15 -69 -8 -80 7 -6
8 -20 12 -32 9 -11 -3 -30 1 -42 9 -15 11 -25 12 -32 5 -13 -13 -38 -4 -38 14
0 8 -4 14 -10 14 -5 0 -10 -4 -10 -10 0 -5 -4 -10 -10 -10 -5 0 -10 16 -10 35
0 19 5 35 10 35 6 0 10 -9 10 -21 0 -12 4 -17 11 -14 6 4 8 13 5 21 -4 10 2
14 20 14 14 0 23 4 20 8 -2 4 -43 9 -91 11 -72 2 -91 -1 -119 -18 -30 -19 -34
-27 -40 -81 -6 -54 -9 -60 -30 -60 -19 0 -28 17 -74 143 -88 244 -128 361
-127 376 0 8 45 53 100 99 173 146 168 140 162 164 -4 12 -1 29 5 37 10 13 10
14 -2 3 -12 -10 -19 -4 -42 33 -30 47 -34 65 -18 65 6 0 10 6 10 13 0 13 41
53 50 48 2 -1 7 6 11 16 4 10 8 14 8 9 1 -5 7 -3 15 3 12 10 18 6 32 -24 18
-39 30 -42 16 -5 -13 36 -3 73 19 67 13 -4 22 5 33 32 8 20 15 28 15 18 1 -16
3 -17 16 -3 8 8 15 20 15 26 0 6 5 8 10 5 6 -3 10 4 10 16 0 22 0 22 19 -2 10
-13 21 -31 24 -39 3 -8 6 4 6 28 1 26 6 42 13 42 20 0 88 72 89 95 0 20 0 20
9 0 7 -18 8 -19 15 -2 4 9 13 17 21 17 7 0 18 -8 24 -17 10 -16 11 -16 4 2
-17 49 -16 63 2 62 11 -1 23 8 29 20 8 19 16 22 47 18 32 -4 37 -2 40 17 2 14
11 22 26 23 12 1 22 -3 22 -8 0 -6 8 -19 17 -29 16 -18 14 -21 -23 -60 -36
-38 -36 -39 -6 -15 19 15 38 25 43 21 5 -3 8 0 7 8 -2 7 4 12 12 10 8 -2 12
-1 8 3 -3 4 8 20 25 35 32 28 32 28 39 7 6 -20 6 -20 7 4 1 14 11 35 24 46 43
39 47 38 41 -11 -4 -29 -3 -46 3 -46 6 0 13 22 15 50 4 38 12 56 32 75 27 25
53 34 41 15z m1211 -15 c20 -19 28 -37 32 -75 2 -28 9 -50 15 -50 6 0 7 17 3
46 -6 49 -2 50 42 11 12 -11 22 -32 23 -46 1 -24 1 -24 7 -4 7 21 7 21 39 -7
17 -15 28 -31 25 -35 -4 -4 0 -5 8 -3 8 2 14 -3 12 -10 -1 -8 2 -11 7 -8 5 4
24 -6 43 -21 30 -24 30 -23 -6 15 -37 39 -39 42 -23 60 9 10 17 23 17 29 0 5
10 9 23 8 14 -1 23 -9 25 -23 3 -19 8 -21 40 -17 31 4 39 1 47 -18 6 -12 18
-21 29 -20 18 1 19 -13 2 -62 -7 -18 -6 -18 4 -2 6 9 17 17 24 17 8 0 17 -8
21 -17 7 -17 8 -16 15 2 8 20 9 20 9 0 1 -22 68 -95 88 -95 9 0 13 -15 14 -42
0 -33 2 -38 9 -23 4 12 15 27 24 34 14 11 16 11 16 -3 0 -10 5 -14 10 -11 6 3
10 1 10 -5 0 -6 7 -18 15 -26 13 -14 15 -13 16 3 0 10 7 2 15 -18 11 -27 20
-36 33 -32 22 6 32 -31 19 -67 -14 -37 -2 -34 16 5 15 32 20 35 34 23 9 -7 22
-20 29 -28 7 -8 13 -12 13 -8 0 13 40 -26 40 -39 0 -7 5 -13 10 -13 16 0 12
-18 -18 -65 -23 -37 -30 -43 -42 -33 -12 11 -12 10 -2 -3 6 -8 9 -25 5 -37 -6
-24 -11 -18 162 -164 55 -46 100 -91 100 -99 1 -15 -39 -132 -127 -377 -47
-129 -54 -142 -72 -136 -28 9 -26 5 -33 63 -5 44 -10 54 -39 72 -28 17 -47 20
-119 18 -48 -2 -89 -7 -91 -11 -3 -4 6 -8 20 -8 18 0 24 -4 20 -14 -3 -8 -1
-17 5 -21 7 -3 11 2 11 14 0 12 5 21 10 21 6 0 10 -16 10 -35 0 -19 -4 -35
-10 -35 -5 0 -10 5 -10 10 0 6 -4 10 -10 10 -5 0 -10 -6 -10 -14 0 -18 -25
-27 -38 -14 -7 7 -17 6 -32 -5 -12 -8 -31 -12 -42 -9 -12 3 -26 -1 -32 -9 -11
-15 -89 -22 -80 -7 3 4 0 8 -5 8 -6 0 -11 -6 -11 -13 0 -9 -13 -14 -37 -14
-21 -1 -107 -5 -190 -8 l-153 -8 0 55 c0 64 18 86 78 99 37 8 37 8 -7 4 -62
-5 -81 -28 -88 -104 l-6 -62 -39 4 c-21 2 -49 14 -61 25 -23 21 -23 26 -25
269 -2 146 -7 249 -12 251 -6 2 -10 13 -10 25 0 18 2 19 10 7 7 -10 10 47 9
185 -2 228 8 385 25 385 8 0 8 3 0 8 -7 5 -7 32 2 92 8 47 19 124 25 173 7 48
17 87 21 87 5 0 6 5 3 10 -12 19 14 10 41 -15z"/>
<path d="M1912 2880 c-89 -166 -124 -293 -123 -455 0 -125 18 -226 63 -353 35
-99 104 -242 117 -242 14 0 86 146 120 242 83 238 82 476 -4 679 -44 104 -103
209 -118 209 -7 0 -31 -36 -55 -80z m96 -62 c55 -96 111 -266 112 -335 0 -20
-5 -23 -35 -23 -24 0 -35 -5 -35 -15 0 -8 -8 -30 -17 -50 -16 -33 -20 -35 -63
-35 -43 0 -48 3 -63 33 -9 17 -18 40 -22 51 -4 14 -12 17 -34 13 -26 -5 -28
-4 -29 26 -4 88 107 387 142 387 8 0 28 -24 44 -52z"/>
</g>
</svg>
